<svg width="96" height="25" viewBox="0 0 96 25" fill="none" xmlns="http://www.w3.org/2000/svg">
<path d="M14.8136 11.8956C14.8243 11.0711 15.0439 10.2626 15.4521 9.54543C15.8603 8.82826 16.4437 8.2257 17.1482 7.79382C16.7007 7.15647 16.1103 6.63195 15.4239 6.26193C14.7376 5.89191 13.9741 5.68658 13.1943 5.66225C11.5307 5.48811 9.91791 6.65492 9.07016 6.65492C8.20603 6.65492 6.90082 5.67954 5.49531 5.70837C4.58619 5.73766 3.70019 6.00129 2.92362 6.47356C2.14705 6.94584 1.5064 7.61065 1.0641 8.40324C-0.851817 11.7111 0.577288 16.5727 2.41261 19.2465C3.33087 20.5559 4.40404 22.0184 5.80828 21.9665C7.1824 21.9097 7.69561 21.0927 9.35429 21.0927C10.9976 21.0927 11.4791 21.9665 12.9118 21.9336C14.3863 21.9097 15.3153 20.6184 16.2014 19.2967C16.8611 18.3638 17.3688 17.3327 17.7056 16.2416C16.849 15.8803 16.1179 15.2755 15.6037 14.5027C15.0894 13.7299 14.8146 12.8232 14.8136 11.8956Z" fill="#363636"/>
<path d="M12.1079 3.90347C12.9118 2.94105 13.3079 1.70402 13.212 0.455078C11.9837 0.583722 10.8492 1.16911 10.0343 2.09461C9.63595 2.54674 9.33083 3.07273 9.13641 3.64252C8.94199 4.21232 8.8621 4.81473 8.9013 5.41533C9.51565 5.42164 10.1234 5.28885 10.6789 5.02697C11.2343 4.76509 11.7229 4.38095 12.1079 3.90347Z" fill="#363636"/>
<path d="M31.2991 18.7843H26.7898L25.7069 21.9729H23.7969L28.0681 10.1758H30.0525L34.3237 21.9729H32.3811L31.2991 18.7843ZM27.2568 17.3129H30.8312L29.0691 12.138H29.0198L27.2568 17.3129Z" fill="#363636"/>
<path d="M43.5475 17.6719C43.5475 20.3447 42.1129 22.0619 39.948 22.0619C39.3996 22.0905 38.8542 21.9645 38.3743 21.6984C37.8943 21.4323 37.4992 21.0367 37.2343 20.5571H37.1933V24.8173H35.4229V13.3709H37.1365V14.8014H37.1691C37.4463 14.3241 37.848 13.9306 38.3317 13.6629C38.8153 13.3951 39.3626 13.2631 39.9155 13.2809C42.1046 13.2809 43.5475 15.0065 43.5475 17.6719ZM41.7278 17.6719C41.7278 15.9305 40.8253 14.7857 39.4485 14.7857C38.0957 14.7857 37.1859 15.9546 37.1859 17.6719C37.1859 19.4049 38.0957 20.5655 39.4485 20.5655C40.8254 20.5655 41.7277 19.429 41.7277 17.6719H41.7278Z" fill="#363636"/>
<path d="M53.0411 17.6719C53.0411 20.3447 51.6061 22.0619 49.4412 22.0619C48.8928 22.0905 48.3474 21.9645 47.8675 21.6984C47.3875 21.4323 46.9924 21.0367 46.7274 20.5571H46.6864V24.8173H44.916V13.3709H46.6297V14.8014H46.6623C46.9394 14.3241 47.3412 13.9306 47.8248 13.6629C48.3084 13.3951 48.8558 13.2631 49.4086 13.2809C51.5977 13.2809 53.0411 15.0065 53.0411 17.6719ZM51.2209 17.6719C51.2209 15.9305 50.3185 14.7857 48.9416 14.7857C47.5889 14.7857 46.679 15.9546 46.679 17.6719C46.679 19.4049 47.5889 20.5655 48.9416 20.5655C50.3185 20.5655 51.2209 19.429 51.2209 17.6719Z" fill="#363636"/>
<path d="M59.3153 18.6854C59.4465 19.8552 60.5861 20.6234 62.1435 20.6234C63.6358 20.6234 64.7094 19.8552 64.7094 18.8004C64.7094 17.8847 64.0619 17.3364 62.5287 16.9607L60.9955 16.5923C58.8231 16.0691 57.8146 15.056 57.8146 13.4121C57.8146 11.3766 59.5935 9.97852 62.1184 9.97852C64.6191 9.97852 66.3328 11.3766 66.3905 13.4121H64.6033C64.4963 12.2348 63.5204 11.5241 62.0942 11.5241C60.668 11.5241 59.6921 12.2431 59.6921 13.2896C59.6921 14.1236 60.3154 14.6144 61.8402 14.9901L63.1436 15.3093C65.5709 15.8817 66.5784 16.854 66.5784 18.5795C66.5784 20.7866 64.8164 22.1689 62.0123 22.1689C59.3887 22.1689 57.6174 20.8191 57.5029 18.6853L59.3153 18.6854Z" fill="#363636"/>
<path d="M70.4011 11.3359V13.3714H72.0412V14.7695H70.4011V19.5111C70.4011 20.2478 70.7295 20.591 71.4505 20.591C71.6452 20.5876 71.8396 20.574 72.0329 20.5502V21.9399C71.7087 22.0003 71.3792 22.0277 71.0495 22.0216C69.3033 22.0216 68.6223 21.3675 68.6223 19.6994V14.7695H67.3682V13.3714H68.6222V11.3359H70.4011Z" fill="#363636"/>
<path d="M72.9902 17.6724C72.9902 14.9662 74.5885 13.2656 77.0809 13.2656C79.5817 13.2656 81.1726 14.9661 81.1726 17.6724C81.1726 20.386 79.5901 22.0791 77.0809 22.0791C74.5727 22.0791 72.9902 20.386 72.9902 17.6724ZM79.3686 17.6724C79.3686 15.816 78.5155 14.7203 77.0809 14.7203C75.6463 14.7203 74.7932 15.8243 74.7932 17.6724C74.7932 19.5362 75.6463 20.6235 77.0809 20.6235C78.5155 20.6235 79.3686 19.5362 79.3686 17.6724H79.3686Z" fill="#363636"/>
<path d="M82.6319 13.3708H84.3204V14.8347H84.3614C84.4756 14.3775 84.7442 13.9735 85.122 13.6905C85.4999 13.4075 85.9638 13.2628 86.436 13.2808C86.6401 13.2801 86.8435 13.3022 87.0426 13.3467V14.998C86.785 14.9195 86.5163 14.8835 86.2471 14.8913C85.9899 14.8809 85.7335 14.9262 85.4955 15.0239C85.2575 15.1216 85.0435 15.2696 84.8682 15.4576C84.693 15.6456 84.5606 15.8692 84.4801 16.113C84.3997 16.3569 84.3732 16.6152 84.4023 16.8702V21.9718H82.6318L82.6319 13.3708Z" fill="#363636"/>
<path d="M95.2052 19.4462C94.9671 21.0076 93.4422 22.0791 91.4913 22.0791C88.9822 22.0791 87.4248 20.4027 87.4248 17.7132C87.4248 15.0153 88.9906 13.2656 91.4169 13.2656C93.8032 13.2656 95.3038 14.9003 95.3038 17.5082V18.113H89.212V18.2197C89.1839 18.5363 89.2236 18.8551 89.3286 19.1552C89.4335 19.4552 89.6013 19.7296 89.8208 19.96C90.0402 20.1904 90.3063 20.3717 90.6014 20.4916C90.8965 20.6116 91.2138 20.6676 91.5323 20.656C91.9506 20.695 92.3705 20.5984 92.7294 20.3804C93.0882 20.1625 93.367 19.8348 93.5241 19.4462L95.2052 19.4462ZM89.2204 16.8791H93.5325C93.5484 16.5945 93.5051 16.3097 93.4054 16.0426C93.3056 15.7754 93.1516 15.5317 92.953 15.3267C92.7543 15.1217 92.5153 14.9599 92.251 14.8514C91.9867 14.7429 91.7027 14.6901 91.4169 14.6962C91.1286 14.6945 90.8428 14.7497 90.576 14.8587C90.3092 14.9677 90.0667 15.1283 89.8625 15.3313C89.6583 15.5342 89.4964 15.7755 89.3862 16.0412C89.276 16.3069 89.2196 16.5917 89.2204 16.8792V16.8791Z" fill="#363636"/>
<path d="M23.9996 3.6915H24.7597C24.8906 3.70775 25.0234 3.69679 25.1498 3.65932C25.2762 3.62185 25.3934 3.55868 25.4941 3.47378C25.5948 3.38889 25.6767 3.28412 25.7348 3.16607C25.7929 3.04802 25.8258 2.91925 25.8315 2.78789C25.8315 2.26511 25.437 1.92742 24.7681 1.92742C24.6341 1.90874 24.4976 1.91703 24.3668 1.95181C24.236 1.98659 24.1136 2.04715 24.0066 2.12991C23.8997 2.21267 23.8105 2.31595 23.7443 2.43366C23.678 2.55138 23.6361 2.68113 23.621 2.81526H22.7865C22.8008 2.57178 22.8653 2.33385 22.9759 2.11629C23.0864 1.89873 23.2407 1.70619 23.4292 1.55067C23.6176 1.39515 23.8361 1.27998 24.0711 1.21232C24.3061 1.14466 24.5525 1.12596 24.7951 1.1574C25.9143 1.1574 26.7023 1.78222 26.7023 2.68166C26.7049 2.98298 26.6038 3.27608 26.4159 3.51204C26.2279 3.74799 25.9645 3.91253 25.6696 3.97817V4.04497C26.0192 4.06043 26.3485 4.2133 26.5854 4.47016C26.8223 4.72702 26.9477 5.06697 26.9339 5.4157C26.9081 5.66639 26.8323 5.90942 26.711 6.13052C26.5897 6.35163 26.4254 6.54637 26.2277 6.70332C26.0299 6.86028 25.8028 6.9763 25.5595 7.04457C25.3162 7.11285 25.0617 7.13201 24.8109 7.10093C24.5596 7.1351 24.3039 7.11845 24.0592 7.05199C23.8145 6.98553 23.5856 6.87061 23.3864 6.71408C23.1872 6.55756 23.0215 6.36263 22.8995 6.14091C22.7774 5.9192 22.7013 5.67524 22.6758 5.42359H23.5233C23.5745 5.96585 24.0741 6.31564 24.8109 6.31564C25.5477 6.31564 26.0287 5.92275 26.0287 5.36889C26.0287 4.80714 25.5756 4.4611 24.7839 4.4611H23.9996V3.6915Z" fill="#363636"/>
<path d="M27.8965 5.7541C27.8965 4.98407 28.4724 4.54016 29.492 4.47707L30.654 4.41027V4.04104C30.654 3.58923 30.3554 3.3341 29.7758 3.3341C29.3032 3.3341 28.9766 3.50713 28.8817 3.80957H28.0621C28.1486 3.0748 28.8426 2.60352 29.8158 2.60352C30.8913 2.60352 31.4978 3.13742 31.4978 4.04104V6.96386H30.6819V6.36269H30.6149C30.479 6.57834 30.2881 6.75413 30.0617 6.87213C29.8353 6.99013 29.5816 7.04611 29.3264 7.03434C29.1463 7.05302 28.9643 7.03386 28.7921 6.9781C28.6199 6.92234 28.4613 6.83121 28.3266 6.71059C28.1919 6.58997 28.084 6.44253 28.0099 6.27779C27.9358 6.11304 27.8972 5.93464 27.8965 5.7541ZM30.654 5.38856V5.03093L29.6064 5.09772C29.0156 5.13715 28.7477 5.33754 28.7477 5.71466C28.7477 6.09967 29.0826 6.32372 29.5432 6.32372C29.6781 6.33734 29.8144 6.32376 29.944 6.28378C30.0736 6.24379 30.1938 6.17823 30.2974 6.09098C30.401 6.00373 30.486 5.89658 30.5473 5.77591C30.6086 5.65524 30.6448 5.52351 30.654 5.38856Z" fill="#363636"/>
<path d="M33.745 3.39619V6.96333H32.8984V2.68555H35.723V3.39615L33.745 3.39619Z" fill="#363636"/>
<path d="M40.8537 4.82367C40.8537 6.18279 40.1643 7.03492 39.0814 7.03492C38.8156 7.05303 38.5501 6.99502 38.3162 6.86772C38.0823 6.74042 37.8898 6.54914 37.7613 6.31639H37.6943V8.38663H36.8477V2.68663H37.6626V3.39359H37.7259C37.8567 3.15271 38.0518 2.95258 38.2895 2.8153C38.5272 2.67803 38.7984 2.60894 39.073 2.61568C40.1643 2.61566 40.8537 3.46406 40.8537 4.82367ZM39.9829 4.82367C39.9829 3.92005 39.554 3.37408 38.8367 3.37408C38.1241 3.37408 37.6785 3.93164 37.6785 4.82738C37.6785 5.71894 38.1241 6.27697 38.833 6.27697C39.554 6.27696 39.9829 5.73098 39.9829 4.82367Z" fill="#363636"/>
<path d="M41.9812 8.49549V7.76861C42.0729 7.78022 42.1652 7.78549 42.2575 7.78438C42.4379 7.7977 42.6168 7.74413 42.76 7.63396C42.9032 7.52378 43.0006 7.36474 43.0334 7.18738L43.0967 6.9791L41.5439 2.68555H42.4659L43.5414 6.08337H43.6084L44.6802 2.68555H45.5779L43.9787 7.14007C43.6121 8.18098 43.2065 8.51498 42.332 8.51498C42.2613 8.51497 42.0603 8.50708 41.9812 8.49549Z" fill="#363636"/>
<path d="M46.2373 5.75027H47.0802C47.163 6.12742 47.5175 6.32407 48.0133 6.32407C48.5771 6.32407 48.9232 6.07637 48.9232 5.69137C48.9232 5.27899 48.6125 5.08231 48.0133 5.08231H47.3714V4.42641H48.0022C48.5138 4.42641 48.7743 4.23019 48.7743 3.87256C48.7743 3.55851 48.5222 3.31871 48.0022 3.31871C47.5286 3.31871 47.1825 3.5191 47.1276 3.8568H46.3117C46.3727 3.46876 46.584 3.12009 46.9001 2.88579C47.2163 2.65149 47.612 2.55026 48.0022 2.60389C49.0218 2.60389 49.6051 3.06358 49.6051 3.78629C49.6099 3.98754 49.5452 4.18432 49.422 4.34373C49.2987 4.50314 49.1242 4.61552 48.9278 4.66207V4.72887C49.1617 4.75894 49.3763 4.87357 49.531 5.051C49.6857 5.22842 49.7697 5.4563 49.767 5.69139C49.767 6.50459 49.073 7.04263 48.0133 7.04263C47.0765 7.0426 46.3155 6.61445 46.2373 5.75027Z" fill="#363636"/>
<path d="M50.9863 6.96333V2.68555H51.8255V5.62787H51.8925L53.8694 2.68556H54.7086V6.96334H53.8694V4.00527H53.8062L51.8255 6.96335L50.9863 6.96333Z" fill="#363636"/>
<path d="M59.3315 3.39615H57.9806V6.96328H57.1331V3.39615H55.7822V2.68555H59.3315V3.39615Z" fill="#363636"/>
<path d="M63.8919 5.80892C63.7765 6.19986 63.5271 6.53797 63.1872 6.76417C62.8473 6.99038 62.4384 7.09031 62.0321 7.04651C61.7495 7.05395 61.4687 6.99997 61.2091 6.88832C60.9494 6.77667 60.7173 6.61001 60.5288 6.39993C60.3402 6.18985 60.1998 5.94137 60.1172 5.67174C60.0346 5.40211 60.0119 5.11778 60.0505 4.8385C60.0129 4.55836 60.0361 4.27342 60.1184 4.00299C60.2008 3.73255 60.3405 3.48292 60.5281 3.271C60.7156 3.05908 60.9466 2.88982 61.2055 2.77467C61.4643 2.65952 61.745 2.60118 62.0284 2.60359C63.222 2.60359 63.9431 3.41679 63.9431 4.76009V5.05468H60.9139V5.10199C60.9005 5.25901 60.9201 5.41709 60.9717 5.56607C61.0232 5.71505 61.1053 5.85164 61.2129 5.96706C61.3205 6.08247 61.4511 6.17417 61.5964 6.23624C61.7417 6.29832 61.8983 6.3294 62.0563 6.32749C62.2587 6.35162 62.4637 6.3152 62.6453 6.22286C62.8268 6.13051 62.9768 5.98642 63.076 5.80889L63.8919 5.80892ZM60.9139 4.43031H63.0797C63.0904 4.28681 63.0709 4.14266 63.0224 4.00713C62.9739 3.8716 62.8975 3.74768 62.7982 3.64332C62.6988 3.53896 62.5787 3.45648 62.4455 3.40117C62.3123 3.34585 62.1689 3.31893 62.0247 3.32213C61.8782 3.32014 61.7328 3.34745 61.5971 3.40245C61.4614 3.45744 61.3382 3.539 61.2346 3.64231C61.1311 3.74562 61.0493 3.86858 60.9942 4.00392C60.9392 4.13927 60.9118 4.28425 60.9139 4.43031H60.9139Z" fill="#363636"/>
<path d="M67.4814 2.68555H69.4156C70.2548 2.68555 70.7469 3.10952 70.7469 3.7733C70.7482 3.98392 70.677 4.1886 70.545 4.35309C70.4131 4.51758 70.2285 4.63189 70.0222 4.67691V4.7437C70.2727 4.75949 70.5076 4.87062 70.6783 5.05415C70.849 5.23768 70.9425 5.47958 70.9395 5.72989C70.9395 6.47625 70.3767 6.96331 69.4352 6.96331H67.4814V2.68555ZM68.3206 3.33357V4.44127H69.1598C69.6715 4.44127 69.9161 4.24506 69.9161 3.88324C69.9161 3.54972 69.7031 3.33356 69.2538 3.33356L68.3206 3.33357ZM68.3206 5.06194V6.31532H69.3245C69.825 6.31532 70.0929 6.09498 70.0929 5.69049C70.0929 5.26235 69.7897 5.06195 69.2184 5.06195L68.3206 5.06194Z" fill="#363636"/>
</svg>
