<svg width="20" height="19" viewBox="0 0 20 19" fill="none" xmlns="http://www.w3.org/2000/svg">
<path fill-rule="evenodd" clip-rule="evenodd" d="M6 9.75C5.58579 9.75 5.25 9.41421 5.25 9L5.25 5C5.25 2.37665 7.37665 0.249999 10 0.249999C12.6234 0.249999 14.75 2.37665 14.75 5L14.75 9C14.75 9.41421 14.4142 9.75 14 9.75C13.5858 9.75 13.25 9.41421 13.25 9L13.25 5C13.25 3.20507 11.7949 1.75 10 1.75C8.20507 1.75 6.75 3.20507 6.75 5L6.75 9C6.75 9.41421 6.41421 9.75 6 9.75Z" fill="white"/>
<path fill-rule="evenodd" clip-rule="evenodd" d="M5.63129 5.25H14.369C15.2004 5.24997 15.8963 5.24995 16.4533 5.32228C17.0426 5.3988 17.5767 5.56668 18.0219 5.97633C18.4671 6.38597 18.6788 6.90436 18.804 7.48527C18.9223 8.03432 18.9801 8.72783 19.0491 9.55631L19.571 15.8186C19.6099 16.2849 19.6453 16.7092 19.6264 17.0554C19.6057 17.4347 19.516 17.8427 19.2011 18.1849C18.8863 18.5271 18.4871 18.6504 18.1108 18.7025C17.7674 18.7501 17.3416 18.7501 16.8737 18.75H3.1266C2.6587 18.7501 2.23288 18.7501 1.88952 18.7025C1.51324 18.6504 1.11402 18.5271 0.799149 18.1849C0.484275 17.8427 0.394572 17.4347 0.373883 17.0554C0.355003 16.7092 0.390414 16.2849 0.429323 15.8186L0.951183 9.55632C1.0202 8.72783 1.07796 8.03433 1.1963 7.48527C1.32149 6.90436 1.53316 6.38597 1.97836 5.97633C2.42356 5.56668 2.95773 5.3988 3.54704 5.32228C4.10402 5.24995 4.79993 5.24997 5.63129 5.25ZM3.74019 6.80979C3.31251 6.86532 3.12291 6.96156 2.99402 7.08015C2.86514 7.19874 2.75349 7.3797 2.66263 7.80129C2.56724 8.24391 2.51612 8.83948 2.4419 9.7301L1.92806 15.8962C1.88399 16.425 1.85912 16.7439 1.87166 16.9737C1.87743 17.0795 1.89021 17.1329 1.89824 17.1568C1.90048 17.1634 1.90219 17.1673 1.90308 17.1692C1.90483 17.1702 1.90858 17.1723 1.91504 17.175C1.9382 17.185 1.99033 17.2022 2.09532 17.2167C2.32326 17.2483 2.64312 17.25 3.17374 17.25H16.8265C17.3572 17.25 17.677 17.2483 17.905 17.2167C18.01 17.2022 18.0621 17.185 18.0853 17.175C18.0917 17.1723 18.0955 17.1702 18.0972 17.1692C18.0981 17.1673 18.0998 17.1634 18.1021 17.1568C18.1101 17.1329 18.1229 17.0795 18.1286 16.9737C18.1412 16.7439 18.1163 16.425 18.0722 15.8962L17.5584 9.7301C17.4842 8.83948 17.4331 8.24391 17.3377 7.80129C17.2468 7.3797 17.1352 7.19874 17.0063 7.08015C16.8774 6.96156 16.6878 6.86532 16.2601 6.80979C15.8111 6.75148 15.2133 6.75 14.3196 6.75H5.68068C4.78696 6.75 4.1892 6.75148 3.74019 6.80979Z" fill="white"/>
</svg>
