<svg width="38" height="29" viewBox="0 0 38 29" fill="none" xmlns="http://www.w3.org/2000/svg">
<path d="M35.6303 3.22222H14.7272C14.3492 3.22222 13.9867 3.05248 13.7194 2.75034C13.4521 2.4482 13.302 2.0384 13.302 1.61111C13.302 1.18382 13.4521 0.774025 13.7194 0.471883C13.9867 0.169741 14.3492 0 14.7272 0H35.6303C36.0083 0 36.3708 0.169741 36.638 0.471883C36.9053 0.774025 37.0555 1.18382 37.0555 1.61111C37.0555 2.0384 36.9053 2.4482 36.638 2.75034C36.3708 3.05248 36.0083 3.22222 35.6303 3.22222ZM37.0555 14.5C37.0555 14.0727 36.9053 13.6629 36.638 13.3608C36.3708 13.0586 36.0083 12.8889 35.6303 12.8889H1.42521C1.04722 12.8889 0.684713 13.0586 0.417434 13.3608C0.150155 13.6629 0 14.0727 0 14.5C0 14.9273 0.150155 15.3371 0.417434 15.6392C0.684713 15.9414 1.04722 16.1111 1.42521 16.1111H35.6303C36.0083 16.1111 36.3708 15.9414 36.638 15.6392C36.9053 15.3371 37.0555 14.9273 37.0555 14.5ZM23.7535 27.3889C23.7535 26.9616 23.6034 26.5518 23.3361 26.2497C23.0688 25.9475 22.7063 25.7778 22.3283 25.7778H1.42521C1.04722 25.7778 0.684713 25.9475 0.417434 26.2497C0.150155 26.5518 0 26.9616 0 27.3889C0 27.8162 0.150155 28.226 0.417434 28.5281C0.684713 28.8303 1.04722 29 1.42521 29H22.3283C22.7063 29 23.0688 28.8303 23.3361 28.5281C23.6034 28.226 23.7535 27.8162 23.7535 27.3889Z" fill="black"/>
</svg>
