<svg width="18" height="21" viewBox="0 0 18 21" xmlns="http://www.w3.org/2000/svg">
<path d="M2.45234 20.5313C1.95234 20.5313 1.52734 20.3518 1.17734 19.9928C0.827344 19.6338 0.652344 19.1979 0.652344 18.6851V6.99279C0.652344 6.47997 0.827344 6.04407 1.17734 5.6851C1.52734 5.32612 1.95234 5.14664 2.45234 5.14664H4.65234C4.65234 3.86458 5.08968 2.77467 5.96434 1.87689C6.83968 0.979797 7.90234 0.53125 9.15234 0.53125C10.4023 0.53125 11.465 0.979797 12.3403 1.87689C13.215 2.77467 13.6523 3.86458 13.6523 5.14664H15.8523C16.3523 5.14664 16.7773 5.32612 17.1273 5.6851C17.4773 6.04407 17.6523 6.47997 17.6523 6.99279V18.6851C17.6523 19.1979 17.4773 19.6338 17.1273 19.9928C16.7773 20.3518 16.3523 20.5313 15.8523 20.5313H2.45234ZM2.45234 18.9928H15.8523C15.919 18.9928 15.9857 18.9586 16.0523 18.8902C16.119 18.8218 16.1523 18.7535 16.1523 18.6851V6.99279C16.1523 6.92441 16.119 6.85604 16.0523 6.78766C15.9857 6.71929 15.919 6.6851 15.8523 6.6851H2.45234C2.38568 6.6851 2.31901 6.71929 2.25234 6.78766C2.18568 6.85604 2.15234 6.92441 2.15234 6.99279V18.6851C2.15234 18.7535 2.18568 18.8218 2.25234 18.8902C2.31901 18.9586 2.38568 18.9928 2.45234 18.9928ZM9.15234 12.3261C10.4023 12.3261 11.465 11.8776 12.3403 10.9805C13.215 10.0827 13.6523 8.99279 13.6523 7.71074H12.1523C12.1523 8.56544 11.8607 9.29193 11.2773 9.89022C10.694 10.4885 9.98568 10.7877 9.15234 10.7877C8.31901 10.7877 7.61068 10.4885 7.02734 9.89022C6.44401 9.29193 6.15234 8.56544 6.15234 7.71074H4.65234C4.65234 8.99279 5.08968 10.0827 5.96434 10.9805C6.83968 11.8776 7.90234 12.3261 9.15234 12.3261ZM6.15234 5.14664H12.1523C12.1523 4.29193 11.8607 3.56544 11.2773 2.96715C10.694 2.36886 9.98568 2.06971 9.15234 2.06971C8.31901 2.06971 7.61068 2.36886 7.02734 2.96715C6.44401 3.56544 6.15234 4.29193 6.15234 5.14664Z" />
</svg>
