<svg width="120" height="29" viewBox="0 0 120 29" fill="none" xmlns="http://www.w3.org/2000/svg">
<mask id="mask0_1381_654" style="mask-type:luminance" maskUnits="userSpaceOnUse" x="3" y="0" width="114" height="29">
<path d="M117 0H3V28.7699H117V0Z" fill="white"/>
</mask>
<g mask="url(#mask0_1381_654)">
<path fill-rule="evenodd" clip-rule="evenodd" d="M73.6983 12.4746C71.4 12.4746 67.9524 12.4746 65.608 12.4746C64.275 12.4746 63.6774 12.8889 63.4016 13.7175L62.6201 16.3873C64.9185 16.3873 68.3661 16.3873 70.7104 16.3873C72.0435 16.3873 72.6411 15.973 72.9169 15.1445L73.6983 12.4746Z" fill="#1D1D1B"/>
<path fill-rule="evenodd" clip-rule="evenodd" d="M45.9337 10.2654H44.4168C41.3829 10.2654 38.7628 18.5971 42.3482 18.5511H44.6466C45.9797 18.5511 46.991 19.0574 46.5313 20.4844L45.9337 22.4178H43.4515L41.4289 22.3717C38.8547 22.3257 37.1999 20.9908 36.6482 18.9193C36.0047 16.7098 36.924 12.0606 39.5442 9.06855C41.0611 7.31934 43.1757 6.30664 45.8878 6.30664H50.9902L50.2087 8.74632C49.7031 10.3114 48.6458 10.2193 48.0942 10.2193H45.9337V10.2654Z" fill="#1D1D1B"/>
<path fill-rule="evenodd" clip-rule="evenodd" d="M75.5371 6.35156C73.2387 6.35156 69.7911 6.35156 67.4468 6.35156C66.1137 6.35156 65.5161 6.76585 65.2403 7.59442L64.5048 10.2643C66.8032 10.2643 70.2508 10.2643 72.5952 10.2643C73.9282 10.2643 74.5258 9.85002 74.8016 9.02145L75.5371 6.35156ZM71.7218 18.55C69.4234 18.55 65.9758 18.55 63.6315 18.55C62.2984 18.55 61.7008 18.9643 61.425 19.7928L60.6436 22.4627C62.9419 22.4627 66.3895 22.4627 68.7339 22.4627C70.0669 22.4627 70.6645 22.0484 70.9403 21.2199L71.7218 18.55Z" fill="#1D1D1B"/>
<path fill-rule="evenodd" clip-rule="evenodd" d="M55.2195 10.2191H57.2421C58.9429 10.2191 58.5752 12.5207 57.7018 14.8222C56.9203 16.8016 55.5873 18.5508 53.9784 18.5508H50.6227C49.2897 18.5508 48.6461 18.9651 48.4163 19.7937L47.5889 22.4635H50.0711L52.4614 22.4175C54.576 22.4175 56.3227 22.2334 58.3913 20.254C60.5518 18.1365 63.08 12.7048 62.6203 9.57463C62.2985 7.08891 61.0574 6.39844 58.0695 6.39844H52.6453L49.4735 16.3873H51.4961C52.6913 16.3873 53.2889 16.3873 53.9324 14.5461L55.2195 10.2191Z" fill="#1D1D1B"/>
<path fill-rule="evenodd" clip-rule="evenodd" d="M72.3193 22.4635H76.1347L77.7895 17.4L79.4903 15.8349L80.8234 20.4381C81.2371 21.8651 81.6508 22.4635 82.6161 22.4635H85.558L82.5242 13.4873L89.7411 6.39844H85.0524L80.6395 11.4619C80.1338 12.0603 79.6282 12.6127 79.0766 13.3492H79.0306L81.2371 6.39844H77.4218L72.3193 22.4635Z" fill="#1D1D1B"/>
<path fill-rule="evenodd" clip-rule="evenodd" d="M12.5153 28.7698C17.7556 28.7698 22.0306 24.4889 22.0306 19.2873C22.0306 14.0397 17.7556 9.80469 12.5153 9.80469C7.275 9.80469 3 14.0857 3 19.2873C3 24.5349 7.275 28.7698 12.5153 28.7698Z" fill="#00742C"/>
<path fill-rule="evenodd" clip-rule="evenodd" d="M8.42445 10.7245C7.96477 11.8753 7.68896 13.0721 7.68896 14.407C7.68896 19.6546 11.964 23.8896 17.2043 23.8896C18.6753 23.8896 20.1003 23.5673 21.3414 22.9229C21.8011 21.7721 22.0769 20.5753 22.0769 19.2404C22.0769 19.1483 22.0769 19.0562 22.0769 18.9642C21.939 13.8546 17.7099 9.75781 12.5615 9.75781C12.4696 9.75781 12.4236 9.75781 12.3317 9.75781C10.9527 9.80384 9.61961 10.1721 8.42445 10.7245ZM21.847 19.0102C21.939 19.0102 21.9849 19.0102 22.0769 19.0102C21.9849 19.0102 21.893 19.0102 21.847 19.0102Z" fill="#009A40"/>
<path fill-rule="evenodd" clip-rule="evenodd" d="M12.5614 9.75827C17.7098 9.75827 21.8929 13.8551 22.0767 18.9646C23.4558 18.9186 24.7888 18.5964 25.984 18.044C26.4437 16.8932 26.7195 15.6964 26.7195 14.3614C26.7195 9.11383 22.4445 4.87891 17.2042 4.87891C15.7332 4.87891 14.3082 5.20113 13.0671 5.84557C12.6074 6.99637 12.3315 8.19319 12.3315 9.52811C12.3315 9.62018 12.3315 9.71224 12.3315 9.8043C12.4235 9.75827 12.4694 9.75827 12.5614 9.75827Z" fill="#61B87C"/>
<path fill-rule="evenodd" clip-rule="evenodd" d="M12.3316 9.48332C12.3316 8.19443 12.6074 6.95158 13.0671 5.80078C10.9986 6.81348 9.34367 8.56269 8.42432 10.6801C9.61948 10.1278 10.9525 9.75951 12.3316 9.75951C12.3316 9.71348 12.3316 9.57538 12.3316 9.48332Z" fill="#A8D3AF"/>
<path fill-rule="evenodd" clip-rule="evenodd" d="M25.9841 18.0449C24.7889 18.5973 23.4558 18.9656 22.0768 18.9656C22.0768 19.0576 22.0768 19.1497 22.0768 19.2417C22.0768 20.5306 21.801 21.7735 21.3413 22.9243C23.4099 21.9576 25.0647 20.2084 25.9841 18.0449Z" fill="#A8D3AF"/>
<path fill-rule="evenodd" clip-rule="evenodd" d="M17.204 4.87937C22.4443 4.87937 26.7193 9.11429 26.7193 14.3619C26.7193 15.6508 26.4435 16.8937 25.9838 18.0444C29.1556 16.5254 31.3621 13.2571 31.3621 9.48254C31.3621 4.23493 27.0871 0 21.8467 0C17.8935 0 14.4919 2.39365 13.0669 5.84603C14.308 5.24762 15.733 4.87937 17.204 4.87937Z" fill="#A8D3AF"/>
<path fill-rule="evenodd" clip-rule="evenodd" d="M21.847 19.011C16.6986 19.011 12.5156 14.9142 12.3317 9.80469C10.9527 9.85072 9.61961 10.1729 8.42445 10.7253C7.96477 11.8761 7.68896 13.0729 7.68896 14.4079C7.68896 19.6555 11.964 23.8904 17.2043 23.8904C18.6753 23.8904 20.1003 23.5682 21.3414 22.9237C21.8011 21.7729 22.0769 20.5761 22.0769 19.2412C22.0769 19.1491 22.0769 19.0571 22.0769 18.965C21.9849 19.011 21.893 19.011 21.847 19.011Z" fill="#008236"/>
<path d="M93.2809 19.6103L92.4075 22.5103H89.9712L92.5914 13.9023H96.6825C97.4639 13.9023 98.1075 14.0404 98.6591 14.2706C99.1647 14.5008 99.5325 14.869 99.7623 15.2833C99.9462 15.7436 99.9462 16.25 99.8083 16.8023C99.5325 17.6309 98.9809 18.3214 98.1535 18.8277C97.2801 19.3341 96.2228 19.5642 94.9817 19.5642H93.2809V19.6103ZM93.7405 17.9992H95.3494C95.8091 17.9992 96.2228 17.9071 96.5446 17.6769C96.8664 17.4928 97.0502 17.1706 97.1881 16.8484C97.326 16.4341 97.2801 16.1119 97.0962 15.8817C96.9123 15.6515 96.5905 15.5135 96.1768 15.5135H94.522L93.7405 17.9992Z" fill="#00742C"/>
<path d="M104.359 20.8992H101.003L99.9458 22.5103H97.3257L103.669 13.9023H105.968L107.117 22.5103H104.497L104.359 20.8992ZM102.06 19.3341H104.267L104.083 16.342L102.06 19.3341Z" fill="#00742C"/>
<path d="M111.346 17.6309L114.334 13.9023H117L112.035 19.4262L111.116 22.5103H108.634L109.553 19.4262L107.944 13.9023H110.564L111.346 17.6309Z" fill="#00742C"/>
</g>
</svg>
