<svg width="19" height="19" viewBox="0 0 19 19" fill="none" xmlns="http://www.w3.org/2000/svg">
<path d="M16.3741 0.121094H3.22534C1.88578 0.121094 0.799805 1.20703 0.799805 2.54663V15.6955C0.799805 17.0351 1.88574 18.121 3.22534 18.121H9.71024L9.7213 11.6888H8.05021C7.83305 11.6888 7.65678 11.5132 7.65595 11.296L7.64793 9.22268C7.6471 9.00432 7.82389 8.82687 8.04224 8.82687H9.71029V6.82347C9.71029 4.49855 11.1302 3.23261 13.2042 3.23261H14.906C15.1238 3.23261 15.3004 3.40914 15.3004 3.62693V5.3752C15.3004 5.59289 15.1239 5.76938 14.9063 5.76951L13.8619 5.76999C12.734 5.76999 12.5156 6.30596 12.5156 7.09251V8.82691H14.9939C15.2301 8.82691 15.4133 9.03312 15.3855 9.26764L15.1397 11.341C15.1162 11.5394 14.948 11.6889 14.7482 11.6889H12.5266L12.5156 18.1211H16.3742C17.7137 18.1211 18.7997 17.0352 18.7997 15.6956V2.54663C18.7996 1.20703 17.7137 0.121094 16.3741 0.121094Z" fill="#414751"/>
</svg>
