<svg width="42" height="41" viewBox="0 0 42 41" fill="none" xmlns="http://www.w3.org/2000/svg">
<rect x="0.411621" width="41" height="41" fill="#076EFB"/>
<g clip-path="url(#clip0_1851_9605)">
<path d="M29.0409 9.37109H12.7824C11.126 9.37109 9.7832 10.7139 9.7832 12.3703V28.6289C9.7832 30.2854 11.126 31.6281 12.7824 31.6281H20.801L20.8147 23.6747H18.7484C18.4799 23.6747 18.2619 23.4575 18.2609 23.189L18.251 20.6253C18.2499 20.3553 18.4685 20.1359 18.7385 20.1359H20.8011V17.6586C20.8011 14.7839 22.5568 13.2185 25.1213 13.2185H27.2257C27.4949 13.2185 27.7133 13.4368 27.7133 13.7061V15.8678C27.7133 16.137 27.4951 16.3552 27.226 16.3554L25.9345 16.356C24.5399 16.356 24.2698 17.0187 24.2698 17.9913V20.1359H27.3344C27.6264 20.1359 27.8529 20.3909 27.8185 20.6809L27.5146 23.2446C27.4856 23.4899 27.2775 23.6748 27.0305 23.6748H24.2835L24.2698 31.6282H29.041C30.6974 31.6282 32.0402 30.2855 32.0402 28.6291V12.3703C32.0401 10.7139 30.6974 9.37109 29.0409 9.37109Z" fill="white"/>
</g>
<defs>
<clipPath id="clip0_1851_9605">
<rect width="22.2571" height="22.2571" fill="white" transform="translate(9.7832 9.37109)"/>
</clipPath>
</defs>
</svg>
