<svg width="19" height="13" viewBox="0 0 19 13" fill="none" xmlns="http://www.w3.org/2000/svg">
<path fill-rule="evenodd" clip-rule="evenodd" d="M11.6464 9.35355L15 12.7071L18.3535 9.35355L17.6464 8.64645L15.5 10.7929L15.5 1.68444e-07L14.5 1.24733e-07L14.5 10.7929L12.3535 8.64645L11.6464 9.35355Z" fill="#222222"/>
<path fill-rule="evenodd" clip-rule="evenodd" d="M0.5 10C0.5 10.2761 0.723858 10.5 1 10.5H9C9.27614 10.5 9.5 10.2761 9.5 10C9.5 9.72386 9.27614 9.5 9 9.5H1C0.723858 9.5 0.5 9.72386 0.5 10Z" fill="#222222"/>
<path fill-rule="evenodd" clip-rule="evenodd" d="M0.5 6C0.5 6.27614 0.723858 6.5 1 6.5H7C7.27614 6.5 7.5 6.27614 7.5 6C7.5 5.72386 7.27614 5.5 7 5.5H1C0.723858 5.5 0.5 5.72386 0.5 6Z" fill="#222222"/>
<path fill-rule="evenodd" clip-rule="evenodd" d="M0.5 2C0.5 2.27614 0.723858 2.5 1 2.5H5C5.27614 2.5 5.5 2.27614 5.5 2C5.5 1.72386 5.27614 1.5 5 1.5H1C0.723858 1.5 0.5 1.72386 0.5 2Z" fill="#222222"/>
</svg>
