<svg width="42" height="42" viewBox="0 0 42 42" fill="none" xmlns="http://www.w3.org/2000/svg">
<rect x="0.470703" y="0.27832" width="41" height="41" fill="#076EFB"/>
<g clip-path="url(#clip0_1851_9854)">
<path d="M14.7744 23.0998L13.9997 25.992L11.1681 26.0519C10.3218 24.4823 9.8418 22.6865 9.8418 20.7781C9.8418 18.9327 10.2906 17.1925 11.0861 15.6602H11.0867L13.6077 16.1223L14.712 18.6282C14.4809 19.302 14.3549 20.0254 14.3549 20.7781C14.355 21.595 14.503 22.3777 14.7744 23.0998Z" fill="white"/>
<path d="M31.9043 18.6992C32.0321 19.3724 32.0988 20.0676 32.0988 20.7782C32.0988 21.5749 32.015 22.3521 31.8554 23.1017C31.3137 25.6528 29.8981 27.8803 27.9372 29.4566L27.9366 29.456L24.7613 29.294L24.3119 26.4886C25.6131 25.7255 26.6299 24.5313 27.1656 23.1017H21.2148V18.6992H27.2524H31.9043Z" fill="white"/>
<path d="M27.9366 29.4557L27.9372 29.4563C26.0301 30.9892 23.6075 31.9064 20.9703 31.9064C16.7323 31.9064 13.0476 29.5377 11.168 26.0517L14.7744 23.0996C15.7142 25.6078 18.1337 27.3933 20.9703 27.3933C22.1895 27.3933 23.3318 27.0637 24.3119 26.4883L27.9366 29.4557Z" fill="white"/>
<path d="M28.0735 12.2114L24.4683 15.1629C23.454 14.5289 22.2549 14.1626 20.9702 14.1626C18.0694 14.1626 15.6046 16.03 14.7119 18.6281L11.0865 15.6601H11.0859C12.9381 12.0891 16.6692 9.64941 20.9702 9.64941C23.6704 9.64941 26.1462 10.6113 28.0735 12.2114Z" fill="white"/>
</g>
<defs>
<clipPath id="clip0_1851_9854">
<rect width="22.2571" height="22.2571" fill="white" transform="translate(9.8418 9.64941)"/>
</clipPath>
</defs>
</svg>
