<svg width="111" height="27" viewBox="0 0 111 27" fill="none" xmlns="http://www.w3.org/2000/svg">
<path d="M55.7864 14.6618C54.988 14.6655 54.2086 14.9055 53.5466 15.3514C52.8846 15.7974 52.3696 16.4292 52.0667 17.1673C51.7638 17.9054 51.6865 18.7166 51.8445 19.4985C52.0026 20.2805 52.3889 20.9981 52.9548 21.5609C53.5207 22.1236 54.2407 22.5063 55.024 22.6605C55.8073 22.8148 56.6188 22.7337 57.3561 22.4276C58.0933 22.1215 58.7233 21.604 59.1665 20.9404C59.6097 20.2769 59.8462 19.497 59.8462 18.6993C59.8539 18.1653 59.7541 17.6353 59.5526 17.1407C59.351 16.6461 59.052 16.197 58.6732 15.8203C58.2944 15.4436 57.8436 15.1469 57.3476 14.9478C56.8517 14.7488 56.3207 14.6515 55.7864 14.6618ZM55.7864 21.1503C55.2953 21.1846 54.8054 21.0705 54.3801 20.8229C53.9549 20.5753 53.614 20.2056 53.4018 19.7618C53.1896 19.318 53.116 18.8208 53.1904 18.3346C53.2648 17.8485 53.4839 17.396 53.8192 17.0359C54.1544 16.6758 54.5903 16.4248 55.0702 16.3155C55.5501 16.2062 56.0518 16.2438 56.5101 16.4232C56.9684 16.6026 57.362 16.9156 57.6399 17.3215C57.9178 17.7274 58.067 18.2075 58.0682 18.6993C58.0835 19.0109 58.0363 19.3224 57.9292 19.6155C57.8221 19.9085 57.6573 20.1772 57.4446 20.4056C57.232 20.6341 56.9757 20.8177 56.6909 20.9455C56.4061 21.0734 56.0985 21.143 55.7864 21.1503ZM46.9346 14.6618C46.1358 14.6637 45.3555 14.9021 44.6922 15.3468C44.0289 15.7916 43.5125 16.4228 43.2081 17.1608C42.9037 17.8987 42.8251 18.7102 42.9821 19.4928C43.139 20.2753 43.5247 20.9939 44.0901 21.5576C44.6556 22.1213 45.3757 22.5049 46.1592 22.6599C46.9428 22.8149 47.7548 22.7344 48.4926 22.4285C49.2304 22.1227 49.861 21.6052 50.3046 20.9414C50.7481 20.2776 50.9849 19.4974 50.9849 18.6993C50.9926 18.1653 50.8928 17.6353 50.6913 17.1407C50.4898 16.6461 50.1907 16.197 49.8119 15.8203C49.4331 15.4436 48.9823 15.1469 48.4863 14.9478C47.9904 14.7488 47.4594 14.6515 46.9251 14.6618H46.9346ZM46.9346 21.1503C46.4433 21.1865 45.9525 21.0742 45.5261 20.8278C45.0997 20.5815 44.7573 20.2125 44.5437 19.7691C44.33 19.3256 44.2549 18.8281 44.3282 18.3414C44.4014 17.8547 44.6196 17.4013 44.9544 17.0403C45.2891 16.6792 45.7249 16.4272 46.205 16.3171C46.6851 16.207 47.1872 16.2438 47.6461 16.4228C48.1049 16.6018 48.4992 16.9147 48.7776 17.3207C49.056 17.7267 49.2056 18.2071 49.2069 18.6993C49.2223 19.0109 49.175 19.3224 49.0679 19.6155C48.9608 19.9085 48.796 20.1772 48.5834 20.4056C48.3707 20.6341 48.1144 20.8177 47.8296 20.9455C47.5448 21.0734 47.2372 21.143 46.9251 21.1503H46.9346ZM36.3904 15.9063V17.6163H40.4978C40.4334 18.4217 40.0983 19.1817 39.547 19.7728C39.1361 20.191 38.6421 20.5186 38.0968 20.7346C37.5515 20.9506 36.967 21.0501 36.3809 21.0268C35.1705 21.0268 34.0097 20.5464 33.1538 19.6912C32.298 18.836 31.8171 17.6762 31.8171 16.4668C31.8171 15.2574 32.298 14.0975 33.1538 13.2424C34.0097 12.3872 35.1705 11.9068 36.3809 11.9068C37.5387 11.8879 38.6568 12.3286 39.4899 13.1323L40.6974 11.9258C40.135 11.3568 39.464 10.9063 38.7242 10.6012C37.9844 10.296 37.1908 10.1423 36.3904 10.1493C35.5452 10.1164 34.702 10.2544 33.9113 10.5549C33.1207 10.8554 32.399 11.3123 31.7893 11.8982C31.1797 12.4841 30.6947 13.187 30.3634 13.9647C30.0321 14.7423 29.8613 15.5788 29.8613 16.424C29.8613 17.2692 30.0321 18.1057 30.3634 18.8834C30.6947 19.6611 31.1797 20.3639 31.7893 20.9498C32.399 21.5357 33.1207 21.9926 33.9113 22.2932C34.702 22.5937 35.5452 22.7316 36.3904 22.6988C37.2042 22.7355 38.0165 22.5977 38.7725 22.2945C39.5286 21.9914 40.2109 21.5299 40.7735 20.9413C41.7696 19.8478 42.3015 18.4103 42.2567 16.9323C42.2598 16.5722 42.228 16.2127 42.1616 15.8588L36.3904 15.9063ZM79.4703 17.2363C79.2224 16.5074 78.7587 15.8709 78.1407 15.4112C77.5226 14.9514 76.7795 14.6901 76.0095 14.6618C75.4894 14.6608 74.9746 14.7663 74.497 14.972C74.0194 15.1776 73.5891 15.479 73.2326 15.8574C72.8762 16.2358 72.6012 16.6832 72.4247 17.172C72.2481 17.6609 72.1739 18.1806 72.2064 18.6993C72.1948 19.2302 72.2905 19.7581 72.4877 20.2513C72.6848 20.7445 72.9795 21.1929 73.354 21.5698C73.7285 21.9466 74.1752 22.2442 74.6674 22.4447C75.1596 22.6452 75.6872 22.7446 76.2187 22.7368C76.8837 22.7404 77.5393 22.5791 78.1267 22.2674C78.7141 21.9557 79.2149 21.5033 79.5844 20.9508L78.2058 20.0008C78 20.3435 77.7087 20.627 77.3604 20.8235C77.0121 21.02 76.6187 21.1228 76.2187 21.1218C75.8068 21.1375 75.3998 21.029 75.0505 20.8104C74.7012 20.5919 74.4257 20.2733 74.26 19.8963L79.67 17.6638L79.4703 17.2363ZM73.9558 18.5853C73.9365 18.2914 73.9761 17.9967 74.0723 17.7183C74.1684 17.44 74.3192 17.1836 74.5158 16.9642C74.7123 16.7448 74.9507 16.5668 75.217 16.4406C75.4833 16.3144 75.7721 16.2426 76.0665 16.2293C76.3732 16.2091 76.6791 16.2794 76.9462 16.4314C77.2132 16.5834 77.4297 16.8104 77.5688 17.0843L73.9558 18.5853ZM69.5632 22.4993H71.3411V10.6243H69.5632V22.4993ZM66.6538 15.5643H66.5872C66.3193 15.2649 65.991 15.0256 65.624 14.8618C65.257 14.6981 64.8594 14.6138 64.4575 14.6143C63.4185 14.6646 62.4386 15.1125 61.7211 15.865C61.0036 16.6176 60.6033 17.6171 60.6033 18.6565C60.6033 19.6959 61.0036 20.6955 61.7211 21.448C62.4386 22.2006 63.4185 22.6484 64.4575 22.6988C64.8604 22.7055 65.2599 22.624 65.6278 22.4599C65.9958 22.2957 66.3233 22.053 66.5872 21.7488H66.6443V22.3283C66.6443 23.8768 65.8171 24.7033 64.486 24.7033C64.0427 24.6929 63.6125 24.551 63.2501 24.2955C62.8878 24.0401 62.6097 23.6826 62.4513 23.2688L60.9016 23.9148C61.1933 24.6238 61.6904 25.2296 62.329 25.6545C62.9677 26.0793 63.7188 26.3039 64.486 26.2993C66.5682 26.2993 68.2891 25.0738 68.2891 22.0908V14.8993H66.6538V15.5643ZM64.6191 21.1503C64.0058 21.0963 63.435 20.8147 63.0192 20.361C62.6034 19.9073 62.3728 19.3145 62.3728 18.6993C62.3728 18.0841 62.6034 17.4913 63.0192 17.0376C63.435 16.5839 64.0058 16.3023 64.6191 16.2483C64.9232 16.2639 65.2211 16.3401 65.4952 16.4725C65.7694 16.6049 66.0142 16.7908 66.2153 17.0192C66.4165 17.2476 66.5698 17.5139 66.6663 17.8025C66.7629 18.091 66.8006 18.3959 66.7774 18.6993C66.8033 19.0039 66.7672 19.3107 66.6711 19.601C66.575 19.8913 66.4209 20.1591 66.2183 20.3882C66.0157 20.6173 65.7686 20.803 65.4921 20.9339C65.2156 21.0649 64.9154 21.1385 64.6096 21.1503H64.6191ZM87.7992 10.6243H83.5492V22.4993H85.3271V17.9963H87.8087C88.3154 18.0327 88.8242 17.9643 89.3033 17.7956C89.7825 17.6268 90.2217 17.3612 90.5935 17.0154C90.9654 16.6696 91.262 16.2509 91.4648 15.7855C91.6676 15.3201 91.7723 14.8179 91.7723 14.3103C91.7723 13.8027 91.6676 13.3005 91.4648 12.8351C91.262 12.3697 90.9654 11.951 90.5935 11.6052C90.2217 11.2593 89.7825 10.9938 89.3033 10.825C88.8242 10.6562 88.3154 10.5879 87.8087 10.6243H87.7992ZM87.7992 16.3243H85.3176V12.2773H87.8372C88.3781 12.2773 88.8968 12.492 89.2793 12.8741C89.6618 13.2563 89.8766 13.7746 89.8766 14.315C89.8766 14.8555 89.6618 15.3738 89.2793 15.7559C88.8968 16.1381 88.3781 16.3528 87.8372 16.3528L87.7992 16.3243ZM98.7617 14.6143C98.1144 14.5756 97.4699 14.7268 96.9075 15.0491C96.345 15.3715 95.889 15.851 95.5956 16.4288L97.1739 17.0843C97.3295 16.7977 97.5651 16.5625 97.8521 16.4074C98.1391 16.2522 98.465 16.1837 98.7902 16.2103C99.0159 16.1839 99.2446 16.2028 99.463 16.2657C99.6813 16.3286 99.8849 16.4343 100.062 16.5767C100.239 16.7191 100.386 16.8953 100.494 17.0949C100.602 17.2946 100.669 17.5138 100.692 17.7398V17.8633C100.121 17.5612 99.4839 17.4045 98.8378 17.4073C97.1359 17.4073 95.4149 18.3573 95.4149 20.0768C95.4317 20.4434 95.5219 20.803 95.6802 21.1342C95.8385 21.4654 96.0616 21.7615 96.3364 22.0051C96.6112 22.2486 96.932 22.4347 97.28 22.5522C97.628 22.6697 97.996 22.7163 98.3624 22.6893C98.8101 22.7214 99.2582 22.6325 99.6598 22.4319C100.061 22.2313 100.401 21.9265 100.644 21.5493H100.701V22.4993H102.413V17.9298C102.413 15.8493 100.834 14.6428 98.8092 14.6428L98.7617 14.6143ZM98.543 21.1218C97.963 21.1218 97.1549 20.8273 97.1549 20.1148C97.1549 19.1648 98.1627 18.8513 99.0564 18.8513C99.6212 18.8374 100.179 18.9752 100.673 19.2503C100.613 19.7646 100.37 20.2401 99.9872 20.5893C99.6046 20.9384 99.1086 21.1377 98.5906 21.1503L98.543 21.1218ZM108.65 14.8993L106.615 20.0483H106.558L104.447 14.8993H102.546L105.712 22.1003L103.905 26.0998H105.759L110.627 14.8993H108.65ZM92.6672 22.4993H94.4452V10.6243H92.6672V22.4993Z" fill="#363636"/>
<path d="M0.926118 1.16416C0.616225 1.53571 0.45981 2.01136 0.488757 2.49416V23.5082C0.45981 23.991 0.616225 24.4666 0.926118 24.8382L0.992673 24.9047L12.7729 13.1437V12.8682L0.992673 1.09766L0.926118 1.16416Z" fill="url(#paint0_linear_1_2)"/>
<path d="M16.6707 17.0656L12.7725 13.1421V12.8666L16.6707 8.93359L16.7562 8.98109L21.4246 11.6316C22.7557 12.3821 22.7557 13.6171 21.4246 14.3771L16.7753 17.0181L16.6707 17.0656Z" fill="url(#paint1_linear_1_2)"/>
<path d="M16.7848 17.009L12.7725 13L0.925781 24.837C1.1971 25.0753 1.54321 25.2114 1.90431 25.2218C2.2654 25.2322 2.61879 25.1163 2.90341 24.894L16.7943 17.009" fill="url(#paint2_linear_1_2)"/>
<path d="M16.7855 8.99083L2.89462 1.10583C2.61 0.883539 2.25661 0.76758 1.89552 0.777988C1.53442 0.788396 1.18831 0.924517 0.916992 1.16283L12.7732 12.9998L16.7855 8.99083Z" fill="url(#paint3_linear_1_2)"/>
<path opacity="0.2" d="M16.6707 16.9238L2.8939 24.7613C2.6194 24.9664 2.28586 25.0772 1.94312 25.0772C1.60038 25.0772 1.26684 24.9664 0.992336 24.7613L0.925781 24.8278L0.992336 24.8943C1.26621 25.1009 1.59999 25.2126 1.94312 25.2126C2.28624 25.2126 2.62002 25.1009 2.8939 24.8943L16.7848 17.0093L16.6707 16.9238Z" fill="#363636"/>
<path opacity="0.12" d="M0.926118 24.705C0.616225 24.3334 0.45981 23.8578 0.488757 23.375V23.5175C0.45981 24.0003 0.616225 24.4759 0.926118 24.8475L0.992673 24.781L0.926118 24.705Z" fill="#363636"/>
<path opacity="0.12" d="M21.4248 14.235L16.6709 16.9235L16.7565 17.009L21.4248 14.368C21.6897 14.2437 21.9171 14.0517 22.084 13.8115C22.2509 13.5714 22.3515 13.2914 22.3756 13C22.3221 13.2648 22.2086 13.5138 22.0438 13.7279C21.879 13.942 21.6672 14.1154 21.4248 14.235Z" fill="#363636"/>
<path opacity="0.25" d="M2.89448 1.23931L21.4252 11.7653C21.6676 11.8849 21.8794 12.0583 22.0442 12.2724C22.209 12.4865 22.3225 12.7355 22.376 13.0003C22.3519 12.7089 22.2514 12.4289 22.0844 12.1888C21.9175 11.9486 21.6901 11.7566 21.4252 11.6323L2.89448 1.10631C1.56338 0.355806 0.479492 0.982808 0.479492 2.50281V2.64531C0.508016 1.11581 1.57289 0.488808 2.89448 1.23931Z" fill="white"/>
<path d="M31.0376 7.55689H30.334V5.65689H30.933C31.2061 5.3677 31.4124 5.02214 31.5372 4.6446C31.6621 4.26706 31.7025 3.86674 31.6556 3.47189V0.650391H35.4587V5.64739H36.0957V7.54739H35.3921V6.35039H31.0376V7.55689ZM32.3592 3.50039C32.4035 4.2667 32.2146 5.02846 31.8172 5.68539H34.6696V1.35339H32.3592V3.50039Z" fill="#363636"/>
<path d="M41.7815 5.60939C41.2257 6.16167 40.4737 6.47167 39.6898 6.47167C38.9059 6.47167 38.1539 6.16167 37.5981 5.60939C37.0578 5.03798 36.7568 4.28171 36.7568 3.49564C36.7568 2.70957 37.0578 1.95329 37.5981 1.38189C37.8721 1.10614 38.1979 0.887294 38.5569 0.73795C38.9159 0.588606 39.3009 0.511719 39.6898 0.511719C40.0787 0.511719 40.4637 0.588606 40.8227 0.73795C41.1817 0.887294 41.5076 1.10614 41.7815 1.38189C42.3239 1.9522 42.6264 2.70889 42.6264 3.49564C42.6264 4.28239 42.3239 5.03907 41.7815 5.60939ZM38.14 5.13439C38.5517 5.54395 39.1089 5.7739 39.6898 5.7739C40.2707 5.7739 40.828 5.54395 41.2396 5.13439C41.6458 4.68696 41.8708 4.10448 41.8708 3.50039C41.8708 2.89629 41.6458 2.31382 41.2396 1.86639C40.828 1.45682 40.2707 1.22687 39.6898 1.22687C39.1089 1.22687 38.5517 1.45682 38.14 1.86639C37.7338 2.31382 37.5088 2.89629 37.5088 3.50039C37.5088 4.10448 37.7338 4.68696 38.14 5.13439Z" fill="#363636"/>
<path d="M46.3168 6.47515C45.9243 6.48294 45.5343 6.41129 45.1702 6.26449C44.8062 6.1177 44.4756 5.89881 44.1985 5.62099C43.9213 5.34318 43.7033 5.01219 43.5575 4.64796C43.4118 4.28374 43.3413 3.89381 43.3504 3.50165C43.3413 3.10949 43.4118 2.71956 43.5575 2.35533C43.7033 1.99111 43.9213 1.66012 44.1985 1.38231C44.4756 1.10449 44.8062 0.885598 45.1702 0.738804C45.5343 0.59201 45.9243 0.520354 46.3168 0.52815C46.7147 0.518307 47.1096 0.598673 47.4718 0.763213C47.8341 0.927753 48.1544 1.17219 48.4085 1.47815L47.8951 1.97215C47.7073 1.73393 47.4652 1.54409 47.189 1.41849C46.9127 1.29288 46.6104 1.23516 46.3073 1.25015C46.0155 1.24257 45.7251 1.29423 45.4538 1.402C45.1826 1.50977 44.936 1.67142 44.729 1.87715C44.3168 2.32726 44.0882 2.91527 44.0882 3.5254C44.0882 4.13553 44.3168 4.72354 44.729 5.17365C44.936 5.37938 45.1826 5.54103 45.4538 5.6488C45.7251 5.75657 46.0155 5.80823 46.3073 5.80065C46.642 5.79766 46.9718 5.72023 47.2727 5.57398C47.5737 5.42773 47.8383 5.21634 48.0473 4.95515L48.5607 5.46815C48.3019 5.78176 47.9773 6.03473 47.6099 6.20915C47.204 6.39281 46.7623 6.48369 46.3168 6.47515Z" fill="#363636"/>
<path d="M51.5462 6.35039H50.8141V1.35339H49.2168V0.650391H53.134V1.35339H51.5462V6.35039Z" fill="#363636"/>
<path d="M58.1727 0.650391L56.0144 5.45739C55.9281 5.74175 55.7554 5.99228 55.5204 6.17437C55.2853 6.35646 54.9995 6.46112 54.7024 6.47389C54.5058 6.4714 54.3118 6.4294 54.1319 6.35039L54.322 5.67589C54.4376 5.74312 54.5687 5.77913 54.7024 5.78039C54.8421 5.79091 54.9817 5.75771 55.1017 5.68539C55.2162 5.5885 55.3045 5.46435 55.3584 5.32439L55.5676 4.86839L53.666 0.659891H54.5312L55.9384 3.92789L57.3075 0.650391H58.1727Z" fill="#363636"/>
<path d="M59 6.35039V0.650391H63.1264V6.35039H62.3943V1.35339H59.7321V6.35039H59Z" fill="#363636"/>
<path d="M64.4287 6.35039V0.650391H65.1608V3.09189H68.0132V0.650391H68.7453V6.35039H68.0132V3.77589H65.1608V6.35039H64.4287Z" fill="#363636"/>
<path d="M74.7259 5.60939C74.17 6.16167 73.418 6.47167 72.6341 6.47167C71.8503 6.47167 71.0983 6.16167 70.5424 5.60939C70.0022 5.03798 69.7012 4.28171 69.7012 3.49564C69.7012 2.70957 70.0022 1.95329 70.5424 1.38189C70.8164 1.10614 71.1423 0.887294 71.5013 0.73795C71.8602 0.588606 72.2453 0.511719 72.6341 0.511719C73.023 0.511719 73.408 0.588606 73.767 0.73795C74.126 0.887294 74.4519 1.10614 74.7259 1.38189C75.2683 1.9522 75.5707 2.70889 75.5707 3.49564C75.5707 4.28239 75.2683 5.03907 74.7259 5.60939ZM71.0844 5.13439C71.496 5.54395 72.0532 5.7739 72.6341 5.7739C73.2151 5.7739 73.7723 5.54395 74.1839 5.13439C74.5901 4.68696 74.8151 4.10448 74.8151 3.50039C74.8151 2.89629 74.5901 2.31382 74.1839 1.86639C73.7723 1.45682 73.2151 1.22687 72.6341 1.22687C72.0532 1.22687 71.496 1.45682 71.0844 1.86639C70.6782 2.31382 70.4531 2.89629 70.4531 3.50039C70.4531 4.10448 70.6782 4.68696 71.0844 5.13439Z" fill="#363636"/>
<path d="M78.5576 6.35069V0.650689H80.6208C81.0492 0.642605 81.4644 0.799015 81.7808 1.08769C81.9396 1.22545 82.0663 1.39642 82.1517 1.58849C82.2371 1.78056 82.2793 1.98904 82.2752 2.19919C82.2796 2.45242 82.2067 2.70099 82.066 2.91169C81.9264 3.11635 81.732 3.27766 81.505 3.37719C81.7808 3.46841 82.0227 3.64056 82.1991 3.87119C82.3819 4.10394 82.4793 4.39234 82.4748 4.68819C82.4797 4.90719 82.4362 5.12458 82.3475 5.32489C82.2587 5.5252 82.1269 5.70353 81.9614 5.84719C81.6304 6.15232 81.1948 6.31893 80.7444 6.31269L78.5576 6.35069ZM79.2897 3.09219H80.6208C80.7451 3.09737 80.8691 3.07541 80.984 3.02783C81.099 2.98025 81.2021 2.9082 81.2864 2.81669C81.3705 2.74042 81.4385 2.64799 81.4861 2.54492C81.5338 2.44185 81.5602 2.33024 81.5637 2.21676C81.5673 2.10327 81.5479 1.99024 81.5068 1.88439C81.4657 1.77855 81.4036 1.68206 81.3244 1.60069C81.2449 1.51089 81.1467 1.43966 81.0366 1.39204C80.9265 1.34443 80.8073 1.32161 80.6874 1.32519H79.3278L79.2897 3.09219ZM79.2897 5.64769H80.7634C80.8922 5.65201 81.0203 5.62784 81.1387 5.57693C81.257 5.52602 81.3626 5.44962 81.448 5.35319C81.6156 5.17946 81.7108 4.94849 81.7142 4.70719C81.7142 4.45523 81.614 4.2136 81.4357 4.03544C81.2574 3.85728 81.0156 3.75719 80.7634 3.75719H79.3182L79.2897 5.64769Z" fill="#363636"/>
<defs>
<linearGradient id="paint0_linear_1_2" x1="11.727" y1="2.27566" x2="-4.21399" y2="18.2298" gradientUnits="userSpaceOnUse">
<stop stop-color="#00A0FF"/>
<stop offset="0.01" stop-color="#00A1FF"/>
<stop offset="0.26" stop-color="#00BEFF"/>
<stop offset="0.51" stop-color="#00D2FF"/>
<stop offset="0.76" stop-color="#00DFFF"/>
<stop offset="1" stop-color="#00E3FF"/>
</linearGradient>
<linearGradient id="paint1_linear_1_2" x1="23.1645" y1="12.9996" x2="0.165093" y2="12.9996" gradientUnits="userSpaceOnUse">
<stop stop-color="#FFE000"/>
<stop offset="0.41" stop-color="#FFBD00"/>
<stop offset="0.78" stop-color="#FFA500"/>
<stop offset="1" stop-color="#FF9C00"/>
</linearGradient>
<linearGradient id="paint2_linear_1_2" x1="14.6075" y1="15.185" x2="-7.01447" y2="36.8153" gradientUnits="userSpaceOnUse">
<stop stop-color="#FF3A44"/>
<stop offset="1" stop-color="#C31162"/>
</linearGradient>
<linearGradient id="paint3_linear_1_2" x1="-2.05896" y1="-5.82917" x2="7.59304" y2="3.83077" gradientUnits="userSpaceOnUse">
<stop stop-color="#32A071"/>
<stop offset="0.07" stop-color="#2DA771"/>
<stop offset="0.48" stop-color="#15CF74"/>
<stop offset="0.8" stop-color="#06E775"/>
<stop offset="1" stop-color="#00F076"/>
</linearGradient>
</defs>
</svg>
