<svg width="19" height="19" viewBox="0 0 19 19" fill="none" xmlns="http://www.w3.org/2000/svg">
<path d="M13.4375 0.121094H6.1621C3.20532 0.121094 0.799805 2.52661 0.799805 5.48339V12.7588C0.799805 15.7156 3.20532 18.1211 6.1621 18.1211H13.4375C16.3943 18.1211 18.7998 15.7156 18.7998 12.7588V5.48339C18.7998 2.52661 16.3943 0.121094 13.4375 0.121094ZM16.989 12.7588C16.989 14.7202 15.3989 16.3103 13.4375 16.3103H6.1621C4.20068 16.3103 2.6106 14.7202 2.6106 12.7588V5.48339C2.6106 3.52194 4.20068 1.93189 6.1621 1.93189H13.4375C15.3989 1.93189 16.989 3.52194 16.989 5.48339V12.7588Z" fill="#414751"/>
<path d="M9.79997 4.46484C7.23296 4.46484 5.14453 6.55327 5.14453 9.12025C5.14453 11.6872 7.23296 13.7757 9.79997 13.7757C12.367 13.7757 14.4554 11.6873 14.4554 9.12025C14.4554 6.55324 12.367 4.46484 9.79997 4.46484ZM9.79997 11.9649C8.22891 11.9649 6.95533 10.6913 6.95533 9.12028C6.95533 7.54922 8.22894 6.27564 9.79997 6.27564C11.371 6.27564 12.6446 7.54922 12.6446 9.12028C12.6446 10.6913 11.371 11.9649 9.79997 11.9649Z" fill="#414751"/>
<path d="M14.4642 5.61585C15.0803 5.61585 15.5797 5.1164 15.5797 4.50031C15.5797 3.88421 15.0803 3.38477 14.4642 3.38477C13.8481 3.38477 13.3486 3.88421 13.3486 4.50031C13.3486 5.1164 13.8481 5.61585 14.4642 5.61585Z" fill="#414751"/>
</svg>
