<svg width="207" height="80" viewBox="0 0 207 80" fill="none" xmlns="http://www.w3.org/2000/svg">
<path d="M17.9155 64L2.1075 18.88H9.0195L22.1395 57.856H19.7715L33.6595 18.88H38.7155L51.7715 57.856H49.5955L63.1635 18.88H69.6915L53.7555 64H48.0595L35.3875 26.88H36.7315L23.5475 64H17.9155ZM68.64 64L88.736 18.88H94.432L114.848 64H108L102.432 51.2L105.248 52.992H77.92L80.928 51.2L75.36 64H68.64ZM91.488 26.176L81.76 49.152L80.224 47.68H102.944L101.664 49.152L91.744 26.176H91.488ZM120.812 64V18.88H127.468V39.168H127.596L148.332 18.88H156.588L132.268 42.304L132.332 39.168L158.252 64H149.74L127.596 42.944H127.468V64H120.812ZM162.312 64V18.88H191.88V24.192H168.776V38.4H190.408V43.776H168.776V58.624H191.88V64H162.312Z" fill="#363636"/>
<path d="M201.815 19.1211V13.4811H204.279C204.898 13.4811 205.375 13.6278 205.711 13.9211C206.053 14.2144 206.223 14.6224 206.223 15.1451C206.223 15.4918 206.146 15.7878 205.991 16.0331C205.842 16.2784 205.626 16.4678 205.343 16.6011C205.061 16.7291 204.727 16.7931 204.343 16.7931L204.455 16.6411H204.727C204.951 16.6411 205.151 16.6998 205.327 16.8171C205.503 16.9344 205.647 17.1131 205.759 17.3531L206.583 19.1211H205.447L204.615 17.2891C204.541 17.1024 204.426 16.9798 204.271 16.9211C204.122 16.8624 203.941 16.8331 203.727 16.8331H202.847V19.1211H201.815ZM202.847 16.0731H204.111C204.474 16.0731 204.749 15.9984 204.935 15.8491C205.127 15.6944 205.223 15.4704 205.223 15.1771C205.223 14.8838 205.127 14.6624 204.935 14.5131C204.749 14.3638 204.474 14.2891 204.111 14.2891H202.847V16.0731Z" fill="#363636"/>
</svg>
