<svg width="119" height="29" viewBox="0 0 119 29" fill="none" xmlns="http://www.w3.org/2000/svg">
<path d="M10.2597 29L0.379688 0.799998H4.69969L12.8997 25.16H11.4197L20.0997 0.799998H23.2597L31.4197 25.16H30.0597L38.5397 0.799998H42.6197L32.6597 29H29.0997L21.1797 5.8H22.0197L13.7797 29H10.2597ZM41.9625 29L54.5225 0.799998H58.0825L70.8425 29H66.5625L63.0825 21L64.8425 22.12H47.7625L49.6425 21L46.1625 29H41.9625ZM56.2425 5.36L50.1625 19.72L49.2025 18.8H63.4025L62.6025 19.72L56.4025 5.36H56.2425ZM74.57 29V0.799998H78.73V13.48H78.81L91.77 0.799998H96.93L81.73 15.44L81.77 13.48L97.97 29H92.65L78.81 15.84H78.73V29H74.57ZM100.508 29V0.799998H118.988V4.12H104.548V13H118.068V16.36H104.548V25.64H118.988V29H100.508Z" fill="#363636"/>
</svg>
