<svg width="29" height="18" viewBox="0 0 29 18" fill="none" xmlns="http://www.w3.org/2000/svg">
<g clip-path="url(#clip0_1381_625)">
<path d="M9.07487 17.1435C13.8705 17.1435 17.7581 13.3072 17.7581 8.57469C17.7581 3.84225 13.8705 0.00585938 9.07487 0.00585938C4.27922 0.00585938 0.391602 3.84225 0.391602 8.57469C0.391602 13.3072 4.27922 17.1435 9.07487 17.1435Z" fill="#EE0005"/>
<path d="M19.8629 17.1435C24.6585 17.1435 28.5462 13.3072 28.5462 8.57469C28.5462 3.84226 24.6585 0.00585938 19.8629 0.00585938C15.0673 0.00585938 11.1797 3.84226 11.1797 8.57469C11.1797 13.3072 15.0673 17.1435 19.8629 17.1435Z" fill="#F9A000"/>
<path d="M11.1807 8.57412C11.1807 11.2949 12.4659 13.7192 14.4697 15.2889C16.4734 13.7192 17.7588 11.2949 17.7588 8.57412C17.7588 5.85334 16.4735 3.42899 14.4697 1.85938C12.466 3.42912 11.1807 5.8534 11.1807 8.57412Z" fill="#FF6300"/>
</g>
<defs>
<clipPath id="clip0_1381_625">
<rect width="28.1633" height="17.1429" fill="white" transform="translate(0.387695)"/>
</clipPath>
</defs>
</svg>
