<svg width="57" height="17" viewBox="0 0 57 17" fill="none" xmlns="http://www.w3.org/2000/svg">
<path d="M32.0339 2.29536L28.4785 10.0131H28.1171V0.613281H23.0586V16.5297H27.3487C27.9007 16.5298 28.4411 16.3714 28.906 16.0733C29.3708 15.7752 29.7407 15.3498 29.9718 14.8476L33.5271 7.12984H33.8886V16.5297H38.9431V0.613281H34.6569C34.105 0.613184 33.5646 0.771571 33.0997 1.06968C32.6348 1.3678 32.2649 1.79315 32.0339 2.29536Z" fill="#20AA4D"/>
<path d="M13.0701 2.70499L10.9646 10.027H10.6031L8.49756 2.70499C8.32374 2.10211 7.95912 1.57214 7.4586 1.19488C6.95808 0.817625 6.34876 0.613511 5.72242 0.613281L0.673828 0.613281V16.5316H5.72834V7.1239H6.0898L8.96963 16.5316H12.5882L15.4779 7.1239H15.8393V16.5316H20.8939V0.613281H15.8453C15.2189 0.613511 14.6096 0.817625 14.1091 1.19488C13.6086 1.57214 13.2439 2.10211 13.0701 2.70499Z" fill="#20AA4D"/>
<path d="M41.1143 7.84766V16.5311H46.1589V11.4651H51.5848C52.7041 11.4645 53.7957 11.1163 54.7094 10.4685C55.623 9.82068 56.3138 8.90505 56.6867 7.84766H41.1143Z" fill="#20AA4D"/>
<path d="M51.584 0.613281H40.3906C40.728 2.4414 41.6936 4.09348 43.1198 5.28276C44.5461 6.47204 46.3429 7.12344 48.1986 7.1239H56.8894C56.9614 6.76625 56.9978 6.40233 56.998 6.03748C56.9975 4.59905 56.4269 3.21969 55.4117 2.20257C54.3965 1.18545 53.0198 0.613806 51.584 0.613281" fill="url(#paint0_linear_1381_631)"/>
<defs>
<linearGradient id="paint0_linear_1381_631" x1="40.3906" y1="3.86859" x2="57" y2="3.86859" gradientUnits="userSpaceOnUse">
<stop offset="0.01" stop-color="#00A7E3"/>
<stop offset="0.34" stop-color="#009EDC"/>
<stop offset="0.87" stop-color="#0085C9"/>
<stop offset="1" stop-color="#007EC4"/>
</linearGradient>
</defs>
</svg>
