<svg width="17" height="17" viewBox="0 0 17 17" fill="none" xmlns="http://www.w3.org/2000/svg">
<path fill-rule="evenodd" clip-rule="evenodd" d="M8.5 0.75C8.77614 0.75 9 0.973858 9 1.25L9 15.75C9 16.0261 8.77614 16.25 8.5 16.25C8.22386 16.25 8 16.0261 8 15.75L8 1.25C8 0.973858 8.22386 0.75 8.5 0.75Z" fill="#363636"/>
<path fill-rule="evenodd" clip-rule="evenodd" d="M16.25 8.5C16.25 8.77614 16.0261 9 15.75 9L1.25 9C0.973858 9 0.75 8.77614 0.75 8.5C0.75 8.22386 0.973858 8 1.25 8L15.75 8C16.0261 8 16.25 8.22386 16.25 8.5Z" fill="#363636"/>
</svg>
