<svg width="28" height="28" viewBox="0 0 28 28" fill="none" xmlns="http://www.w3.org/2000/svg">
<path d="M1 13.6667C1 10.254 1 8.54769 1.45682 7.1691C2.3514 4.4694 4.4694 2.3514 7.1691 1.45682C8.54769 1 10.254 1 13.6667 1V1C17.0793 1 18.7856 1 20.1642 1.45682C22.8639 2.3514 24.9819 4.4694 25.8765 7.1691C26.3333 8.54769 26.3333 10.254 26.3333 13.6667V22.3333C26.3333 24.219 26.3333 25.1618 25.7475 25.7475C25.1618 26.3333 24.219 26.3333 22.3333 26.3333H13.6667C10.254 26.3333 8.54769 26.3333 7.1691 25.8765C4.4694 24.9819 2.3514 22.8639 1.45682 20.1642C1 18.7856 1 17.0793 1 13.6667V13.6667Z" stroke="#363636" stroke-width="2"/>
<path d="M8.9165 12.084L18.4165 12.084" stroke="#363636" stroke-width="2" stroke-linecap="round" stroke-linejoin="round"/>
<path d="M13.6665 18.417H18.4165" stroke="#363636" stroke-width="2" stroke-linecap="round" stroke-linejoin="round"/>
</svg>
