<svg width="18" height="19" viewBox="0 0 18 19" xmlns="http://www.w3.org/2000/svg">
<path fill-rule="evenodd" clip-rule="evenodd" d="M3.75581 13.5898C5.27713 12.7143 7.12012 12.25 9 12.25C10.8799 12.25 12.7229 12.7143 14.2442 13.5898C15.7651 14.4651 16.907 15.7205 17.4337 17.1948C17.573 17.5848 17.3698 18.014 16.9797 18.1534C16.5897 18.2927 16.1605 18.0895 16.0211 17.6994C15.6362 16.6221 14.7694 15.6228 13.496 14.8899C12.223 14.1573 10.6423 13.75 9 13.75C7.35773 13.75 5.777 14.1573 4.50401 14.8899C3.23057 15.6228 2.36377 16.6221 1.97887 17.6994C1.83951 18.0895 1.41033 18.2927 1.02026 18.1534C0.630197 18.014 0.426957 17.5848 0.566315 17.1948C1.09301 15.7205 2.23494 14.4651 3.75581 13.5898Z"/>
<path fill-rule="evenodd" clip-rule="evenodd" d="M9 1.75C7.20507 1.75 5.75 3.20507 5.75 5C5.75 6.79493 7.20507 8.25 9 8.25C10.7949 8.25 12.25 6.79493 12.25 5C12.25 3.20507 10.7949 1.75 9 1.75ZM4.25 5C4.25 2.37665 6.37665 0.25 9 0.25C11.6234 0.25 13.75 2.37665 13.75 5C13.75 7.62335 11.6234 9.75 9 9.75C6.37665 9.75 4.25 7.62335 4.25 5Z"/>
</svg>
