<svg width="55" height="17" viewBox="0 0 55 17" fill="none" xmlns="http://www.w3.org/2000/svg">
<g clip-path="url(#clip0_1381_637)">
<path d="M19.4473 16.3055L22.1919 0.810547H26.6354L23.8909 16.3055H19.4473Z" fill="#293688"/>
<path d="M39.7096 1.21089C38.829 0.89686 37.4493 0.560547 35.7264 0.560547C31.3348 0.560547 28.2414 2.66264 28.2148 5.67425C28.1904 7.90022 30.423 9.14185 32.1096 9.88365C33.8392 10.6416 34.4209 11.128 34.4124 11.8054C34.4017 12.844 33.0305 13.3188 31.7529 13.3188C29.9745 13.3182 29.0293 13.0838 27.5697 12.5055L26.9971 12.2587L26.373 15.7274C27.4112 16.1601 29.3311 16.5354 31.324 16.5543C35.9947 16.5533 39.0281 14.4773 39.0622 11.2603C39.0792 9.49784 37.8949 8.1565 35.331 7.05032C33.7775 6.33443 32.826 5.8563 32.8363 5.1297C32.8363 4.48587 33.6421 3.79718 35.3814 3.79718C36.8346 3.77548 37.8875 4.07662 38.7082 4.39065L39.1058 4.56937L39.7096 1.21089Z" fill="#293688"/>
<path d="M47.2857 0.810547C46.2211 0.810547 45.4518 1.12139 44.984 2.13018L38.3984 16.3061H43.1032L44.0178 13.9316H49.6389L50.1611 16.3061H54.3437L50.6845 0.810982H47.2859L47.2857 0.810547ZM45.2661 10.8312C45.6332 9.93886 47.036 6.50035 47.036 6.50035C47.0105 6.54101 47.4012 5.60371 47.6255 5.02211L47.9263 6.35737C47.9263 6.35737 48.7763 10.0562 48.9548 10.8316H45.2661V10.8312Z" fill="#293688"/>
<path d="M11.3445 11.4321L10.9531 9.30791C10.1421 6.83174 7.62514 4.15254 4.80469 2.81018L8.73068 16.3055H13.4365L20.4938 0.810547H15.789L11.3445 11.4321Z" fill="#293688"/>
<path d="M-0.0263672 0.810547V1.06076C5.54945 2.34291 9.42049 5.58432 10.953 9.30806L9.34178 2.13293C9.07281 1.15236 8.25774 0.844698 7.29327 0.81069L-0.0263672 0.810547Z" fill="#F7981D"/>
</g>
<defs>
<clipPath id="clip0_1381_637">
<rect width="54.4898" height="15.9184" fill="white" transform="translate(0 0.611328)"/>
</clipPath>
</defs>
</svg>
