<svg width="41" height="41" viewBox="0 0 41 41" fill="none" xmlns="http://www.w3.org/2000/svg">
<rect width="41" height="41" fill="#2787F5"/>
<g clip-path="url(#clip0_1851_9609)">
<path fill-rule="evenodd" clip-rule="evenodd" d="M12.6414 14.0566H10.2064C9.51073 14.0566 9.37158 14.3759 9.37158 14.7279C9.37158 15.3567 10.1971 18.4749 13.2152 22.5991C15.2274 25.4156 18.0622 26.9424 20.6419 26.9424C22.1897 26.9424 22.3812 26.6033 22.3812 26.0192V23.8905C22.3812 23.2123 22.5278 23.0769 23.0178 23.0769C23.379 23.0769 23.9981 23.253 25.4428 24.6109C27.0938 26.2203 27.3659 26.9424 28.2945 26.9424H30.7295C31.4252 26.9424 31.773 26.6033 31.5724 25.9341C31.3528 25.2671 30.5645 24.2994 29.5186 23.1524C28.951 22.4985 28.0998 21.7944 27.8418 21.4423C27.4807 20.9897 27.5838 20.7885 27.8418 20.3862C27.8418 20.3862 30.8084 16.3123 31.118 14.9292C31.2727 14.4262 31.118 14.0566 30.3816 14.0566H27.9467C27.3276 14.0566 27.0421 14.3759 26.8873 14.7279C26.8873 14.7279 25.6491 17.6702 23.895 19.5814C23.3274 20.1346 23.0695 20.3107 22.7599 20.3107C22.6051 20.3107 22.3811 20.1346 22.3811 19.6317V14.9292C22.3811 14.3256 22.2014 14.0566 21.6854 14.0566H17.8591C17.4722 14.0566 17.2395 14.3367 17.2395 14.6022C17.2395 15.1744 18.1165 15.3064 18.207 16.9158V20.4113C18.207 21.1777 18.0649 21.3167 17.7554 21.3167C16.93 21.3167 14.922 18.3612 13.7311 14.9795C13.4978 14.3222 13.2637 14.0566 12.6414 14.0566Z" fill="white"/>
</g>
<defs>
<clipPath id="clip0_1851_9609">
<rect width="22.2571" height="22.2571" fill="white" transform="translate(9.37158 9.37109)"/>
</clipPath>
</defs>
</svg>
