<svg width="69" height="69" viewBox="0 0 69 69" fill="none" xmlns="http://www.w3.org/2000/svg">
<g filter="url(#filter0_d_15_172)">
<circle cx="34.5" cy="34.5" r="26.5" fill="#27D061"/>
</g>
<g clip-path="url(#clip0_15_172)">
<path d="M34.4187 22.0139C28.0804 22.3157 23.0785 27.5943 23.0977 33.9399C23.1036 35.8726 23.5702 37.6968 24.3932 39.3086L23.1295 45.4429C23.0611 45.7747 23.3604 46.0652 23.6901 45.9872L29.7009 44.5631C31.2452 45.3323 32.9798 45.7767 34.8155 45.8047C41.2939 45.9036 46.6958 40.7596 46.8977 34.2836C47.1142 27.3417 41.3849 21.6821 34.4187 22.0139ZM41.591 40.4934C39.8306 42.2537 37.4901 43.2231 35.0007 43.2231C33.543 43.2231 32.1474 42.8961 30.8526 42.2511L30.0155 41.8341L26.3302 42.7073L27.106 38.9416L26.6936 38.134C26.0214 36.8176 25.6806 35.394 25.6806 33.903C25.6806 31.4135 26.65 29.0731 28.4103 27.3127C30.1549 25.5681 32.5336 24.5828 35.0009 24.5828C37.4903 24.5829 39.8307 25.5523 41.591 27.3126C43.3514 29.0729 44.3208 31.4134 44.3209 33.9028C44.3208 36.3701 43.3356 38.7488 41.591 40.4934Z" fill="white"/>
<path d="M40.778 36.4839L38.4724 35.8219C38.1693 35.7349 37.8429 35.8209 37.622 36.0459L37.0582 36.6204C36.8204 36.8626 36.4597 36.9404 36.145 36.8131C35.0544 36.3717 32.7601 34.3318 32.1741 33.3114C32.0051 33.0171 32.033 32.6491 32.2406 32.3806L32.7328 31.7437C32.9257 31.4942 32.9664 31.1591 32.8389 30.8707L31.8688 28.6768C31.6365 28.1513 30.965 27.9983 30.5263 28.3694C29.8828 28.9136 29.1193 29.7407 29.0265 30.6569C28.8629 32.2723 29.5556 34.3087 32.1755 36.7538C35.202 39.5786 37.6257 39.9518 39.2038 39.5696C40.0988 39.3528 40.8141 38.4837 41.2655 37.772C41.5733 37.2869 41.3303 36.6425 40.778 36.4839Z" fill="white"/>
</g>
<defs>
<filter id="filter0_d_15_172" x="0" y="0" width="69" height="69" filterUnits="userSpaceOnUse" color-interpolation-filters="sRGB">
<feFlood flood-opacity="0" result="BackgroundImageFix"/>
<feColorMatrix in="SourceAlpha" type="matrix" values="0 0 0 0 0 0 0 0 0 0 0 0 0 0 0 0 0 0 127 0" result="hardAlpha"/>
<feOffset/>
<feGaussianBlur stdDeviation="4"/>
<feComposite in2="hardAlpha" operator="out"/>
<feColorMatrix type="matrix" values="0 0 0 0 0 0 0 0 0 0 0 0 0 0 0 0 0 0 0.25 0"/>
<feBlend mode="normal" in2="BackgroundImageFix" result="effect1_dropShadow_15_172"/>
<feBlend mode="normal" in="SourceGraphic" in2="effect1_dropShadow_15_172" result="shape"/>
</filter>
<clipPath id="clip0_15_172">
<rect width="24" height="24" fill="white" transform="translate(23 22)"/>
</clipPath>
</defs>
</svg>
