<svg width="18" height="14" viewBox="0 0 18 14" fill="none" xmlns="http://www.w3.org/2000/svg">
<path d="M17.235 2.12609C16.7467 1.25759 16.2169 1.09784 15.138 1.03709C14.0603 0.963969 11.3501 0.933594 9.00225 0.933594C6.64987 0.933594 3.93862 0.963969 2.862 1.03597C1.78537 1.09784 1.25437 1.25647 0.761625 2.12609C0.25875 2.99347 0 4.48747 0 7.11772C0 7.11997 0 7.12109 0 7.12109C0 7.12334 0 7.12447 0 7.12447V7.12672C0 9.74572 0.25875 11.251 0.761625 12.1093C1.25437 12.9778 1.78425 13.1353 2.86087 13.2085C3.93863 13.2715 6.64987 13.3086 9.00225 13.3086C11.3501 13.3086 14.0602 13.2715 15.1391 13.2096C16.218 13.1365 16.7479 12.979 17.2361 12.1105C17.7435 11.2521 18 9.74684 18 7.12784C18 7.12784 18 7.12447 18 7.12222C18 7.12222 18 7.11997 18 7.11884C18 4.48747 17.7435 2.99347 17.235 2.12609ZM6.75 10.4961V3.74609L12.375 7.12109L6.75 10.4961Z" fill="#414751"/>
</svg>
